<?xml version="1.0" encoding="UTF-8" standalone="no"?>
<!-- Generator: Avocode 1.0.0 - http://avocode.com -->
<svg xmlns="http://www.w3.org/2000/svg" xmlns:xlink="http://www.w3.org/1999/xlink" width="16" height="16" viewBox="0 0 16 16">
    <desc>Created with Avocode</desc>
    <g fill="#4bbf66">
        <path d="M 15 0 C 15.55 0, 16 0.45, 16 1 L 16 15 C 16 15.55, 15.55 16, 15 16 L 1 16 C 0.45 16, 0 15.55, 0 15 L 0 1 C 0 0.45, 0.45 0, 1 0 L 15 0 Z" />
        <path d="M 9 7 C 7.89 7, 7 6.11, 7 5 C 7 3.9, 7.89 3, 9 3 C 10.11 3, 11 3.9, 11 5 C 11 6.11, 10.11 7, 9 7 Z" />
        <path d="M 14 13 L 14 14 L 2 14 L 2 10 L 4 8 L 8.5 12.5 L 11 10 L 14 13 Z" />
    </g>
</svg>