<?xml version="1.0" standalone="no"?>
<!DOCTYPE svg PUBLIC "-//W3C//DTD SVG 1.1//EN" "http://www.w3.org/Graphics/SVG/1.1/DTD/svg11.dtd" >
<svg xmlns="http://www.w3.org/2000/svg">
<metadata>Generated by IcoMoon</metadata>
<defs>
<font id="greenfence" horiz-adv-x="1024">
<font-face units-per-em="1024" ascent="960" descent="-64" />
<missing-glyph horiz-adv-x="1024" />
<glyph unicode="&#x20;" d="" horiz-adv-x="512" />
<glyph unicode="&#xe600;" d="M957.036 194.875c0 0 0-28.125-28.035-28.125-14.040 0-217.35 0-420.66 0-201.915 0-406.485 0-420.48 0-28.035 0-28.035 28.125-28.035 28.125s-3.060 53.37 28.035 84.375c31.050 31.005 102.645 102.285 112.14 112.5 9.45 10.17 10.305 28.080 10.305 28.080s17.685 196.875 17.685 196.875c0 0 27.99 281.295 280.35 281.295 252.405 0 280.44-281.295 280.44-281.295s17.73-196.875 17.73-196.875c0 0 0.855-17.91 10.305-28.080 9.45-10.215 81-81.495 112.185-112.5 31.095-31.005 28.035-84.375 28.035-84.375zM884.090 239.92c0 0-116.73 117-123.345 123.705-6.705 6.705-8.46 16.92-8.46 16.92s-25.245 236.16-25.245 236.16c0 0-22.365 225.045-218.7 225.045-196.29 0-218.7-225.045-218.7-225.045s-25.2-236.16-25.2-236.16c0 0-1.71-10.215-8.37-16.92s-123.39-123.705-123.39-123.705c0 0-13.95-16.92 11.25-16.92 12.735 0 190.53 0 364.41 0 173.52 0 351.81 0 364.59 0 25.2 0 11.16 16.92 11.16 16.92zM508.34-2c-61.965 0-112.14 50.355-112.14 112.5 0 0 224.325 0 224.325 0 0-62.145-50.22-112.5-112.185-112.5z" />
<glyph unicode="&#xe601;" d="M512-2c-248.49 0-450 201.51-450 449.955 0 248.535 201.51 450.045 450 450.045 248.535 0 450-201.51 450-450.045 0-248.445-201.465-449.955-450-449.955zM799.28 716.605c0 0-28.89-28.89-28.89-28.89-10.98-11.025-28.755-11.025-39.78 0-10.98 10.98-10.98 28.8 0 39.735 0 0 27.585 27.63 27.585 27.63-67.455 54.090-153 86.625-246.195 86.625-105.795 0-201.6-41.895-272.34-109.755 0 0 30.87-30.825 30.87-30.825 10.98-11.025 10.98-28.8 0-39.78s-28.8-10.98-39.78 0c0 0-28.8 28.755-28.8 28.755-52.29-66.78-83.7-150.705-83.7-242.145 0-106.65 42.57-203.175 111.465-274.095 0 0 27.405 27.405 27.405 27.405 10.98 10.935 28.8 10.935 39.78 0 10.98-10.98 10.98-28.8 0-39.825 0 0-25.065-25.020-25.065-25.020 66.51-51.3 149.625-82.215 240.165-82.215 104.85 0 199.935 41.265 270.495 108.18 0 0-25.515 25.47-25.515 25.47-10.98 10.98-10.98 28.755 0 39.735 11.025 11.025 28.8 11.025 39.78 0 0 0 23.805-23.76 23.805-23.76 53.19 67.095 85.185 151.875 85.185 244.125 0 104.040-40.59 198.315-106.47 268.65zM399.5 447.955c0 0 112.5 281.25 112.5 281.25s112.5-281.25 112.5-281.25c0 0-112.5-281.205-112.5-281.205s-112.5 281.205-112.5 281.205zM455.75 447.955c0 0 56.25-140.58 56.25-140.58s56.25 140.58 56.25 140.58c0 0-112.5 0-112.5 0z" />
<glyph unicode="&#xe602;" d="M860.231 169.017c0 0-157.184-159.346-157.184-159.346-21.675-22.016-56.832-22.016-78.507 0 0 0-314.254 318.748-314.254 318.748-21.675 22.016-21.675 57.685 0 79.758 0 0 157.127 159.346 157.127 159.346 21.675 21.959 56.832 21.959 78.507 0 0 0 39.253-39.879 39.253-39.879s-39.253-39.879-39.253-39.879c0 0-39.253 39.879-39.253 39.879s-157.184-159.346-157.184-159.346c0 0 314.368-318.805 314.368-318.805s157.070 159.346 157.070 159.346c0 0-157.070 159.46-157.070 159.46s39.196 39.879 39.196 39.879c0 0 157.184-159.46 157.184-159.46 21.675-21.959 21.675-57.628 0-79.701zM545.92 328.42c-21.675-21.959-56.832-21.959-78.507 0 0 0-39.31 39.879-39.31 39.879s39.31 39.879 39.31 39.879c0 0 39.253-39.879 39.253-39.879s157.184 159.346 157.184 159.346c0 0-314.368 318.805-314.368 318.805s-157.070-159.346-157.070-159.346c0 0 157.070-159.46 157.070-159.46s-39.196-39.879-39.196-39.879c0 0-157.184 159.46-157.184 159.46-21.675 21.959-21.675 57.685 0 79.701 0 0 157.184 159.403 157.184 159.403 21.675 21.959 56.832 21.959 78.507 0 0 0 314.254-318.805 314.254-318.805 21.675-21.959 21.675-57.685 0-79.758 0 0-157.127-159.346-157.127-159.346z" horiz-adv-x="1026" />
<glyph unicode="&#xe603;" d="M947.98 89.72c0 0-270.9 270.96-270.9 270.96 39.78 55.44 63.54 123.36 63.54 196.74 0 186.84-151.44 338.34-338.28 338.34-186.78 0-338.22-151.5-338.22-338.34 0-186.72 151.44-338.16 338.22-338.16 73.5 0 141.36 23.76 196.8 63.54 0 0 271.020-270.96 271.020-270.96 21.48-21.48 56.34-21.48 77.82 0 21.48 21.54 21.48 56.34 0 77.88zM402.34 275.66c-155.64 0-281.88 126.12-281.88 281.76 0 155.82 126.24 282.060 281.88 282.060 155.7 0 281.88-126.24 281.88-282.060 0-155.64-126.18-281.76-281.88-281.76z" />
<glyph unicode="&#xe604;" d="M905.75-2c0 0-787.5 0-787.5 0-31.050 0-56.25 25.144-56.25 56.194 0 0 0 787.5 0 787.5 0 31.106 25.2 56.25 56.25 56.25 0 0 787.5 0 787.5 0 31.050 0 56.25-25.144 56.25-56.25 0 0 0-787.5 0-787.5 0-31.050-25.2-56.194-56.25-56.194zM905.75 841.694c0 0-787.5 0-787.5 0s0-787.5 0-787.5c0 0 787.5 0 787.5 0s0 787.5 0 787.5zM540.125 194.875c0 0 140.625 140.625 140.625 140.625s168.75-168.75 168.75-168.75c0 0 0-56.306 0-56.306s-675 0-675 0c0 0 0 225.056 0 225.056s112.5 112.444 112.5 112.444c0 0 253.125-253.069 253.125-253.069zM568.25 504.194c-62.156 0-112.5 50.4-112.5 112.556s50.344 112.5 112.5 112.5c62.156 0 112.5-50.344 112.5-112.5s-50.344-112.556-112.5-112.556z" />
<glyph unicode="&#xe605;" d="M728.834 283.323c0 0 0 54.637 0 54.637 91.266 0 165.214 73.334 165.214 163.834 0 90.461-73.948 163.834-165.214 163.834-45.173 0-86.055-18.085-115.902-47.242 0.537-2.414-19.962-7.394-32.453-7.394-12.452 0-25.365 9.387-30.269 17.816-30.23 84.867-110.997 146.019-206.901 146.019-121.688 0-220.31-97.78-220.31-218.471 0-101.609 70.384-186.286 165.213-210.693 0 0 0-56.974 0-56.974-134.102 24.368-220.31 135.136-220.31 268.548 0 151.266 123.642 273.912 276.25 273.912 110.653 0 205.366-64.944 249.468-158.087 37.433 29.081 83.949 47.166 135.213 47.166 121.649 0 220.31-97.818 220.31-218.433 0-120.692-98.66-218.471-220.31-218.471zM673.737 337.96c0 0-110.155 0-110.155 0s0-218.471 0-218.471c0-30.154-24.636-54.637-55.058-54.637-30.46 0-55.058 24.483-55.058 54.637 0 0 0 218.471 0 218.471s-110.155 0-110.155 0c0 0 165.214 163.834 165.214 163.834s165.214-163.834 165.214-163.834z" />
<glyph unicode="&#xe606;" d="M647.217 370.997c87.911 47.736 148.248 139.283 148.248 245.772 0 155.303-126.936 281.232-283.464 281.232s-283.464-125.928-283.464-281.232c0-106.488 60.336-198.036 148.248-245.772-166.789-51.768-292.176-196.344-314.388-372.997 0 0 52.74 0 52.74 0s4.536 0 4.536 0c0 0 784.656 0 784.656 0s4.536 0 4.536 0c0 0 52.74 0 52.74 0-22.211 176.652-147.6 321.228-314.389 372.997zM285.236 616.768c0 124.236 101.52 224.964 226.764 224.964s226.764-100.728 226.764-224.964c0-124.308-101.52-225-226.764-225s-226.764 100.692-226.764 225zM132.489 54.232c48.78 162.503 199.836 281.268 379.512 281.268s330.732-118.764 379.512-281.268c0 0-759.024 0-759.024 0z" />
<glyph unicode="&#xe607;" d="M901.951 174.977c0 0-110.851 0-110.851 0s0-110.851 0-110.851c0-30.616-24.788-55.488-55.404-55.488s-55.446 24.873-55.446 55.488c0 0 0 110.851 0 110.851s-110.809 0-110.809 0c-30.658 0-55.446 24.788-55.446 55.362 0 30.658 24.788 55.488 55.446 55.488 0 0 110.809 0 110.809 0s0 110.851 0 110.851c0 30.573 24.83 55.404 55.446 55.404s55.404-24.83 55.404-55.404c0 0 0-110.851 0-110.851s110.851 0 110.851 0c30.658 0 55.446-24.83 55.446-55.488 0-30.573-24.788-55.362-55.446-55.362zM701.112 507.528c19.003 32.643 30.743 70.269 30.743 110.765 0 122.505-99.279 221.785-221.701 221.785s-221.701-99.279-221.701-221.785c0-122.422 99.279-221.617 221.701-221.617 42.144 0 81.122 12.374 114.693 32.812 0 0 0-106.332 0-106.332-36.275 11.275-74.619 18.074-114.693 18.074-175.672 0-323.303-117.016-371.021-277.106 0 0 485.716 0 485.716 0s0-55.488 0-55.488c0 0-498.258 0-498.258 0s-4.391 0-4.391 0c0 0-51.604 0-51.604 0 21.748 174.109 144.296 316.589 307.341 367.601-85.935 47.043-144.887 137.201-144.887 242.055 0 153.122 124.068 277.189 277.106 277.189s277.148-124.068 277.148-277.189c0-39.484-8.446-76.941-23.522-110.765 0 0-62.667 0-62.667 0z" horiz-adv-x="1022" />
<glyph unicode="&#xe608;" d="M849.5-2c0 0 112.5 112.5 112.5 112.5s0-112.5 0-112.5c0 0-112.5 0-112.5 0zM568.272 279.272c0 0 112.5 112.5 112.5 112.5s224.957-225 224.957-225c0 0-112.5-112.5-112.5-112.5s-224.957 225-224.957 225zM694.4 490.6c24.428 36 38.7 79.415 38.7 126.172 0 124.243-100.757 225-225 225s-225-100.757-225-225c0-124.286 100.757-225 225-225 25.885 0 50.314 5.228 73.457 13.285 0 0-69.857-69.857-69.857-69.857-1.243 0-2.357 0.3-3.6 0.3-178.286 0-328.114-118.714-376.543-281.228 0 0 549.215 0 549.215 0s56.228-56.272 56.228-56.272c0 0-618.172 0-618.172 0s-4.457 0-4.457 0c0 0-52.372 0-52.372 0 22.072 176.658 146.442 321.257 311.914 373.028-87.214 47.743-147.043 139.242-147.043 245.743 0 155.314 125.914 281.228 281.228 281.228s281.272-125.914 281.272-281.228c0-62.358-20.958-119.314-55.542-165.6 0 0-39.428 39.428-39.428 39.428z" />
<glyph unicode="&#xe609;" d="M962-2c0 0-56.25 0-56.25 0s-562.5 0-562.5 0c0 0-56.25 0-56.25 0 0 144.619 91.181 267.666 219.009 315.675-63.731 39.741-106.509 109.941-106.509 190.575 0 124.256 100.744 225 225 225s225-100.744 225-225c0-80.634-42.778-150.834-106.509-190.575 127.828-48.009 219.009-171.056 219.009-315.675zM680.75 273.597c0 0 0 72.253 0 72.253 65.419 23.231 112.5 85.050 112.5 158.4 0 93.178-75.544 168.75-168.75 168.75s-168.75-75.572-168.75-168.75c0-73.35 47.081-135.169 112.5-158.4 0 0 0-72.253 0-72.253-110.138-22.387-196.425-109.237-218.841-219.347 0 0 550.181 0 550.181 0-22.416 110.109-108.703 196.959-218.841 219.347zM399.5 841.75c-93.206 0-168.75-75.572-168.75-168.75 0-73.35 47.081-135.197 112.5-158.428 0 0 0-72.253 0-72.253-110.138-22.331-196.425-109.209-218.841-219.319 0 0 177.216 0 177.216 0-12.375-17.719-23.147-36.591-32.484-56.278 0 0-150.891 0-150.891 0s-56.25 0-56.25 0c0 144.647 91.181 267.694 219.009 315.703-63.731 39.769-106.509 109.941-106.509 190.575 0 124.256 100.744 225 225 225 84.262 0 156.881-46.856 195.384-115.509-19.997-2.109-39.263-6.131-57.825-12.262-30.544 43.144-80.663 71.522-137.559 71.522z" />
<glyph unicode="&#xe60a;" d="M135.676 627.439h179.439v-628.038h-179.439v628.038zM315.116 806.879c0-49.551-40.169-89.72-89.72-89.72s-89.72 40.169-89.72 89.72c0 49.551 40.169 89.72 89.72 89.72s89.72-40.169 89.72-89.72zM943.153-0.598h-179.439v358.879c0 49.55-40.169 89.72-89.72 89.72-49.553 0-89.72-40.169-89.72-89.72v-358.879h-179.439v628.038h179.439v-111.41c37.004 50.838 93.577 111.41 157.010 111.41 111.491 0 201.869-100.421 201.869-224.299v-403.738z" />
<glyph unicode="&#xe60b;" d="M887.525 377.412c0 0-502.306 507.837-502.306 507.837s-38.667-39.057-38.667-39.057c0 0 502.306-507.837 502.306-507.837 64.060-64.725 64.060-169.667 0-234.28-63.949-64.725-167.786-64.725-231.845 0 0 0-463.692 468.67-463.692 468.67-42.651 43.205-42.651 113.075 0 156.279 42.651 43.15 111.912 43.15 154.563 0 0 0 463.691-468.782 463.691-468.782 21.353-21.521 21.353-56.536 0-78.167-21.353-21.575-55.929-21.575-77.226 0 0 0-425.080 429.782-425.080 429.782s-38.668-39.11-38.668-39.11c0 0 425.023-429.67 425.023-429.67 42.707-43.15 111.968-43.15 154.619 0 42.707 43.15 42.707 113.128 0 156.224 0 0-463.691 468.782-463.691 468.782-64.005 64.669-167.786 64.669-231.901 0-63.949-64.725-63.949-169.667 0-234.391 0 0 463.747-468.727 463.747-468.727 85.358-86.355 223.77-86.355 309.129-0.056s85.358 226.259 0 312.502z" horiz-adv-x="1026" />
<glyph unicode="&#xe60c;" d="M905.75 110.5c0 0-393.75-112.5-393.75-112.5s-393.75 112.5-393.75 112.5c-32.962 14.569-56.25 32.512-56.25 84.375 0 0 0 84.431 0 84.431s0 562.444 0 562.444c0 31.050 25.144 56.25 56.25 56.25 0 0 393.75-112.5 393.75-112.5s393.75 112.5 393.75 112.5c31.106 0 56.25-25.2 56.25-56.25 0 0 0-562.444 0-562.444s0-85.331 0-85.331c0-48.319-14.063-67.669-56.25-83.475zM905.75 841.75c0 0-393.75-112.5-393.75-112.5s-393.75 112.5-393.75 112.5c0 0 0-562.444 0-562.444s393.75-112.556 393.75-112.556c0 0 393.75 112.556 393.75 112.556s0 562.444 0 562.444zM905.75 223c0 0-393.75-112.5-393.75-112.5s-393.75 112.5-393.75 112.5c0 0 0-56.25 0-56.25s393.75-112.5 393.75-112.5c0 0 393.75 112.5 393.75 112.5s0 56.25 0 56.25zM793.25 616.75c0 0-225-56.25-225-56.25s0 56.25 0 56.25c0 0 225 56.306 225 56.306s0-56.306 0-56.306zM793.25 504.25c0 0-225-56.25-225-56.25s0 56.25 0 56.25c0 0 225 56.25 225 56.25s0-56.25 0-56.25zM793.25 391.75c0 0-225-56.25-225-56.25s0 56.25 0 56.25c0 0 225 56.25 225 56.25s0-56.25 0-56.25zM230.75 448c0 0 225-56.25 225-56.25s0-56.25 0-56.25c0 0-225 56.25-225 56.25s0 56.25 0 56.25zM230.75 560.5c0 0 225-56.25 225-56.25s0-56.25 0-56.25c0 0-225 56.25-225 56.25s0 56.25 0 56.25zM230.75 673.056c0 0 225-56.306 225-56.306s0-56.25 0-56.25c0 0-225 56.25-225 56.25s0 56.306 0 56.306z" />
<glyph unicode="&#xe60d;" d="M905.75 222.944c0 0-618.75 0-618.75 0s-225-224.944-225-224.944c0 0 0 281.25 0 281.25s0 562.5 0 562.5c0 31.050 25.2 56.25 56.25 56.25 0 0 787.5 0 787.5 0 31.050 0 56.25-25.2 56.25-56.25 0 0 0-562.5 0-562.5 0-31.050-25.2-56.306-56.25-56.306zM905.75 841.75c0 0-787.5 0-787.5 0s0-703.125 0-703.125c0 0 140.625 140.625 140.625 140.625s646.875 0 646.875 0c0 0 0 562.5 0 562.5zM737 616.694c0 0-450 0-450 0s0 56.306 0 56.306c0 0 450 0 450 0s0-56.306 0-56.306zM737 448c0 0-450 0-450 0s0 56.25 0 56.25c0 0 450 0 450 0s0-56.25 0-56.25z" />
<glyph unicode="&#xe60e;" d="M961.606-2c0 0-52.763 0-52.763 0s-4.5 0-4.5 0c0 0-218.362 0-218.362 0s-11.306 56.25-11.306 56.25c0 0 216.844 0 216.844 0-48.825 162.563-199.856 281.25-379.519 281.25s-330.694-118.688-379.519-281.25c0 0 224.719 0 224.719 0s-11.363-56.25-11.363-56.25c0 0-226.181 0-226.181 0s-4.5 0-4.5 0c0 0-52.762 0-52.762 0 22.219 176.681 147.6 321.244 314.381 373.050-87.919 47.7-148.219 139.275-148.219 245.756 0 155.25 126.9 281.194 283.444 281.194s283.444-125.944 283.444-281.194c0-106.481-60.3-198.056-148.219-245.756 166.781-51.806 292.162-196.369 314.381-373.050zM738.8 616.806c0 124.256-101.587 224.944-226.8 224.944s-226.744-100.688-226.744-224.944c0-124.369 101.531-225.056 226.744-225.056s226.8 100.688 226.8 225.056zM572.637 279.25c0 0 56.7-281.25 56.7-281.25s-226.8 0-226.8 0c0 0 56.7 281.25 56.7 281.25s113.4 0 113.4 0z" />
<glyph unicode="&#xe60f;" d="M933.875 166.75c0 0-30.938 0-30.938 0-3.656-18-10.8-34.594-20.588-49.275 0 0 21.994-21.994 21.994-21.994 10.969-11.025 10.969-28.8 0-39.769-11.025-11.025-28.8-11.025-39.769 0 0 0-21.994 21.881-21.994 21.881-14.737-9.675-31.388-16.875-49.331-20.475 0 0 0-30.994 0-30.994 0-15.581-12.6-28.125-28.125-28.125s-28.125 12.544-28.125 28.125c0 0 0 30.994 0 30.994-17.944 3.6-34.594 10.8-49.331 20.475 0 0-21.994-21.881-21.994-21.881-10.969-11.025-28.744-11.025-39.769 0-10.969 10.969-10.969 28.744 0 39.769 0 0 21.994 21.994 21.994 21.994-9.788 14.681-16.931 31.275-20.588 49.275 0 0-30.938 0-30.938 0-15.525 0-28.125 12.6-28.125 28.125s12.6 28.125 28.125 28.125c0 0 30.938 0 30.938 0 3.656 17.944 10.8 34.594 20.588 49.331 0 0-21.994 21.938-21.994 21.938-10.969 11.025-10.969 28.856 0 39.769 11.025 11.025 28.8 11.025 39.769 0 0 0 21.994-21.938 21.994-21.938 14.737 9.788 31.387 16.931 49.331 20.531 0 0 0 30.994 0 30.994 0 15.525 12.6 28.125 28.125 28.125s28.125-12.6 28.125-28.125c0 0 0-30.994 0-30.994 17.944-3.6 34.594-10.744 49.331-20.531 0 0 21.994 21.937 21.994 21.937 10.969 11.025 28.744 11.025 39.769 0 10.969-10.913 10.969-28.744 0-39.769 0 0-21.938-21.937-21.938-21.937 9.731-14.738 16.875-31.388 20.531-49.331 0 0 30.938 0 30.938 0 15.525 0 28.125-12.6 28.125-28.125s-12.6-28.125-28.125-28.125zM824.806 254.5c0 0-0.056 0-0.056 0-15.244 15.3-36.337 24.75-59.625 24.75s-44.381-9.45-59.681-24.75c0 0 0 0 0 0-15.244-15.188-24.694-36.337-24.694-59.625s9.45-44.381 24.694-59.681c0 0 0 0 0 0 15.3-15.244 36.394-24.694 59.681-24.694s44.381 9.45 59.625 24.694c0 0 0.056 0 0.056 0 15.244 15.3 24.694 36.394 24.694 59.681s-9.45 44.438-24.694 59.625zM765.125 166.75c-15.525 0-28.125 12.6-28.125 28.125s12.6 28.125 28.125 28.125c15.525 0 28.125-12.6 28.125-28.125s-12.6-28.125-28.125-28.125zM680.75 504.25c0 0-56.25 0-56.25 0-2.644 0-4.95 1.181-7.481 1.519-5.4-21.6-13.95-41.738-25.087-60.3 2.081-1.575 4.556-2.306 6.469-4.275 0 0 39.769-39.769 39.769-39.769 3.038-3.094 4.669-6.919 6.919-10.462-40.444-3.6-72.394-35.606-76.050-76.050-3.544 2.25-7.369 3.881-10.406 6.975 0 0-39.825 39.769-39.825 39.769-1.912 1.912-2.7 4.275-4.275 6.469-18.562-11.194-38.756-19.744-60.3-25.144 0.394-2.531 1.519-4.837 1.519-7.481 0 0 0-56.25 0-56.25 0-31.106-25.144-56.25-56.25-56.25s-56.25 25.144-56.25 56.25c0 0 0 56.25 0 56.25 0 2.644 1.181 4.95 1.519 7.481-21.544 5.4-41.737 14.006-60.3 25.144-1.575-2.194-2.362-4.556-4.275-6.469 0 0-39.825-39.769-39.825-39.769-21.938-22.050-57.544-22.050-79.538 0-21.938 21.937-21.938 57.488 0 79.538 0 0 39.769 39.769 39.769 39.769 1.913 1.969 4.387 2.7 6.469 4.275-11.137 18.562-19.688 38.7-25.087 60.3-2.531-0.338-4.838-1.519-7.481-1.519 0 0-56.25 0-56.25 0-31.050 0-56.25 25.2-56.25 56.25 0 31.106 25.2 56.25 56.25 56.25 0 0 56.25 0 56.25 0 2.644 0 4.95-1.125 7.481-1.575 5.4 21.6 13.95 41.794 25.087 60.356-2.081 1.575-4.556 2.362-6.469 4.331 0 0-39.769 39.769-39.769 39.769-21.938 21.881-21.938 57.487 0 79.481 21.994 21.994 57.6 21.994 79.538 0 0 0 39.825-39.769 39.825-39.769 1.913-1.913 2.7-4.331 4.275-6.412 18.563 11.081 38.756 19.631 60.3 25.087-0.337 2.531-1.519 4.837-1.519 7.481 0 0 0 56.306 0 56.306 0 30.994 25.144 56.194 56.25 56.194s56.25-25.2 56.25-56.194c0 0 0-56.306 0-56.306 0-2.644-1.125-4.95-1.519-7.481 21.544-5.456 41.738-13.95 60.3-25.087 1.575 2.081 2.363 4.5 4.275 6.412 0 0 39.825 39.769 39.825 39.769 21.938 21.994 57.544 21.994 79.538 0 21.938-21.994 21.938-57.6 0-79.481 0 0-39.769-39.769-39.769-39.769-1.913-1.969-4.387-2.756-6.469-4.331 11.138-18.563 19.688-38.756 25.087-60.356 2.531 0.45 4.837 1.575 7.481 1.575 0 0 56.25 0 56.25 0 31.050 0 56.25-25.144 56.25-56.25 0-31.050-25.2-56.25-56.25-56.25zM518.863 679.75c0 0.112 0 0.112-0.056 0.112 0 0 0 0-0.056 0-30.487 30.544-72.675 49.388-119.25 49.388s-88.762-18.844-119.306-49.388c0 0 0 0-0.056 0 0 0 0 0 0-0.112-30.544-30.544-49.387-72.675-49.387-119.25s18.844-88.706 49.387-119.25c0-0.056 0.056-0.056 0.056-0.056s0.056-0.056 0.056-0.056c30.488-30.544 72.675-49.387 119.25-49.387s88.762 18.844 119.25 49.387c0.056 0 0.056 0.056 0.056 0.056 0.056 0 0.056 0 0.056 0.056 30.544 30.544 49.387 72.675 49.387 119.25s-18.844 88.706-49.387 119.25zM399.5 504.25c-31.050 0-56.25 25.2-56.25 56.25 0 31.106 25.2 56.25 56.25 56.25s56.25-25.144 56.25-56.25c0-31.050-25.2-56.25-56.25-56.25z" />
<glyph unicode="&#xe610;" d="M888.42 230.7c0 0-636.36 636.42-636.36 636.42-43.98 43.92-115.2 43.92-159.12 0-43.92-43.98-43.92-115.26 0-159.18 0 0 636.42-636.36 636.42-636.36s230.64-71.58 230.64-71.58c0 0-71.58 230.7-71.58 230.7zM132.72 747.72c-21.96 21.96-21.96 57.6 0 79.56s57.6 21.96 79.56 0c0 0 477.3-477.24 477.3-477.24s-79.56-79.62-79.56-79.62c0 0-477.3 477.3-477.3 477.3zM757.32 123.18c0 0-107.52 107.52-107.52 107.52s79.56 79.56 79.56 79.56c0 0 107.46-107.58 107.46-107.58s43.56-123 43.56-123c0 0-123.060 43.5-123.060 43.5z" />
<glyph unicode="&#xe611;" d="M831.824 825.947c0 0 118.811-99.51 118.811-99.51 7.119-6.011 8.385-17.244 2.294-24.521 0 0-510.363-608.212-510.363-608.212-4.034-4.746-9.652-6.803-15.029-6.091-3.876 0.158-7.594 1.582-10.758 4.192 0 0-336.182 282.076-336.182 282.076-7.515 6.249-8.782 17.559-2.61 24.917 0 0 99.273 118.336 99.273 118.336 6.012 7.198 17.482 8.148 25.075 1.74 0 0 204.794-171.808 204.794-171.808s400.175 476.903 400.175 476.903c6.565 7.831 17.165 8.227 24.521 1.977z" horiz-adv-x="1021" />
<glyph unicode="&#xe612;" d="M951.872 789.248c13.44-13.44 13.44-35.52 0-48.832l-268.48-268.672c-13.312-13.312-13.312-35.392 0-48.768l268.352-268.736c13.44-13.44 13.44-35.52 0-48.832l-97.728-97.664c-13.44-13.312-35.52-13.312-48.832 0l-268.288 268.736c-13.312 13.312-35.392 13.312-48.832 0l-268.48-268.544c-13.44-13.44-35.52-13.44-48.832 0l-97.664 97.728c-13.44 13.312-13.44 35.392 0 48.832l268.48 268.544c13.44 13.312 13.44 35.392 0 48.896l-268.288 268.736c-13.44 13.312-13.44 35.392 0 48.832l97.728 97.536c13.44 13.312 35.392 13.312 48.832-0.064l268.288-268.544c13.44-13.44 35.52-13.44 48.832-0.192l268.48 268.544c13.44 13.44 35.392 13.44 48.832 0l97.536-97.664z" />
<glyph unicode="&#xe613;" d="M894.915 779.513c0 0-773.529 0-773.529 0-30.499 0-55.253-24.754-55.253-55.253 0 0 0-552.466 0-552.466 0-30.61 24.753-55.308 55.253-55.308 0 0 773.529 0 773.529 0 30.499 0 55.253 24.698 55.253 55.308 0 0 0 552.466 0 552.466 0 30.5-24.754 55.253-55.253 55.253zM867.287 724.258c0 0-359.138-359.082-359.138-359.082s-359.139 359.082-359.139 359.082c0 0 718.279 0 718.279 0zM894.915 171.793c0 0-773.529 0-773.529 0s0 497.214 0 497.214c0 0 386.764-386.765 386.764-386.765s386.765 386.765 386.765 386.765c0 0 0-497.214 0-497.214z" horiz-adv-x="1026" />
<glyph unicode="&#xe614;" d="M849.5 898c0 0-506.25 0-506.25 0s-225-224.944-225-224.944c0 0 0-618.806 0-618.806 0-31.050 25.2-56.194 56.25-56.194 0 0 675 0 675 0 31.050 0 56.25 25.144 56.25 56.194 0 0 0 787.5 0 787.5 0 31.106-25.2 56.25-56.25 56.25zM343.25 813.625c0 0 0-140.569 0-140.569s-140.625 0-140.625 0c0 0 140.625 140.569 140.625 140.569zM849.5 54.25c0 0-675 0-675 0s0 562.5 0 562.5c0 0 168.75 0 168.75 0 31.050 0 56.25 25.2 56.25 56.306 0 0 0 168.694 0 168.694s450 0 450 0c0 0 0-787.5 0-787.5z" />
<glyph unicode="&#xe615;" d="M962 898c0 0-354.544-900-354.544-900s-193.669 189.788-193.669 189.788c0 0-79.031-133.538-79.031-133.538s-81.844 281.25-81.844 281.25c0 0-190.913 196.875-190.913 196.875s900 365.625 900 365.625zM580.175 124.619c0 0 250.762 607.556 250.762 607.556s-401.681-464.681-401.681-464.681c0 0 150.919-142.875 150.919-142.875zM344.319 201.906c0 0 44.719 103.669 44.719 103.669s261.9 302.906 261.9 302.906c0 0-336.881-252.787-336.881-252.787 10.237-61.256 30.262-153.788 30.262-153.788zM277.494 397.881c0 0 443.925 333.056 443.925 333.056s-539.438-223.875-539.438-223.875c0 0 95.512-109.181 95.512-109.181z" />
<glyph unicode="&#xe616;" d="M909.017 734.118c0 0-282.352 0-282.352 0s0 112.942 0 112.942c0 31.228-25.298 56.528-56.47 56.528 0 0-451.764 0-451.764 0-31.172 0-56.47-25.298-56.47-56.528 0 0 0-790.588 0-790.588 0-31.116 25.298-56.47 56.47-56.47 0 0 790.588 0 790.588 0 31.172 0 56.47 25.356 56.47 56.47 0 0 0 621.176 0 621.176 0 31.228-25.298 56.47-56.47 56.47zM909.017 56.47c0 0-790.588 0-790.588 0s0 790.588 0 790.588c0 0 451.764 0 451.764 0s0-169.412 0-169.412c0 0 338.824 0 338.824 0s0-621.176 0-621.176z" horiz-adv-x="1023" />
<glyph unicode="&#xe617;" d="M127.134 643.805c-14.060 13.905-36.785 13.905-50.794 0-14.009-13.852-14.009-36.37 0-50.275l410.289-406.241c14.060-13.905 36.734-13.905 50.794 0l410.289 406.241c14.009 13.905 14.060 36.37 0 50.275s-36.836 13.905-50.794 0.051l-384.918-370.494-384.866 370.442z" />
<glyph unicode="&#xe618;" d="M905.15 121.826c-7.972-17.361-24.802-28.135-43.902-28.135 0 0-252.059 0-252.059 0 0-53.291-43.354-96.629-96.629-96.629-53.291 0-96.629 43.338-96.629 96.629 0 0-252.075 0-252.075 0-19.1 0-35.914 10.774-43.902 28.135-7.972 17.345-5.201 37.123 7.215 51.632 0 0 70.137 81.829 70.137 81.829 47.509 55.417 73.68 126.134 73.68 199.123 0 0 0 138.535 0 138.535 0 110.883 75.193 204.307 177.186 232.586 0 0-0.033 8.986-0.033 8.986 0 35.527 28.893 64.42 64.42 64.42 35.511 0 64.42-28.893 64.42-64.42 0 0-0.033-8.971-0.033-8.971 101.992-28.296 177.186-121.721 177.186-232.605 0 0 0-138.535 0-138.535 0-72.988 26.154-143.704 73.664-199.122 0 0 70.137-81.829 70.137-81.829 12.434-14.51 15.204-34.286 7.215-51.632zM512.56 29.271c35.511 0 64.42 28.893 64.42 64.42 0 0-128.84 0-128.84 0 0-35.527 28.893-64.42 64.42-64.42zM512.56 866.729c-17.764 0-32.209-14.445-32.209-32.209 0 0 0-2.222 0-2.222 0.741 0.112 1.466 0.065 2.207 0.161 9.856 1.225 19.826 2.062 30.003 2.062s20.146-0.837 29.987-2.062c0.741-0.098 1.466-0.047 2.207-0.161 0 0 0.015 2.222 0.015 2.222 0 17.764-14.445 32.209-32.209 32.209zM873.472 152.491c0 0-70.137 81.829-70.137 81.829-52.501 61.248-81.41 139.421-81.41 220.090 0 0 0 138.535 0 138.535 0 100.109-70.669 183.918-164.706 204.452-29.86 6.505-59.476 6.505-89.333 0-94.037-20.533-164.689-104.344-164.689-204.452 0 0 0-138.535 0-138.535 0-80.67-28.925-158.843-81.427-220.090 0 0-70.137-81.829-70.137-81.829-6.233-7.263-3.415-15.009-2.4-17.216 1-2.19 5.040-9.373 14.622-9.373 0 0 252.074 0 252.074 0s193.26 0 193.26 0c0 0 252.059 0 252.059 0 9.583 0 13.625 7.182 14.641 9.373 1.014 2.207 3.832 9.954-2.416 17.216zM512.56 737.889c-79.929 0-144.944-65.033-144.944-144.944 0-8.89-7.215-16.105-16.105-16.105s-16.105 7.215-16.105 16.105c0 97.676 79.477 177.154 177.154 177.154 8.89 0 16.105-7.215 16.105-16.105s-7.215-16.105-16.105-16.105z" horiz-adv-x="1027" />
<glyph unicode="&#xe619;" d="M943.072 16.872c-21.367-21.255-56.010-21.255-77.377 0 0 0-269.176 269.233-269.176 269.233-55.118-39.497-122.51-63.095-195.538-63.095-185.605 0-336.067 150.459-336.067 336.009 0 185.605 150.459 336.067 336.067 336.067 185.549 0 336.009-150.459 336.009-336.067 0-73.027-23.543-140.417-63.096-195.481 0 0 269.176-269.233 269.176-269.233 21.311-21.367 21.311-56.010 0-77.433zM680.981 559.017c0 154.699-125.354 280.055-279.999 280.055s-280.055-125.354-280.055-280.055c0-154.645 125.411-280.055 280.055-280.055s279.999 125.412 279.999 280.055zM510.997 503.006c0 0-56.010 0-56.010 0s0-55.956 0-55.956c0-31.018-25.049-56.010-56.010-56.010-30.906 0-55.956 24.994-55.956 56.010 0 0 0 55.956 0 55.956s-56.010 0-56.010 0c-30.962 0-56.010 25.105-56.010 56.010 0 31.018 25.049 56.010 56.010 56.010 0 0 56.010 0 56.010 0s0 56.010 0 56.010c0 30.962 25.049 56.066 55.956 56.066 30.962 0 56.010-25.105 56.010-56.066 0 0 0-56.010 0-56.010s56.010 0 56.010 0c30.962 0 56.010-24.993 56.010-56.010 0-30.906-25.049-56.010-56.010-56.010z" />
<glyph unicode="&#xe61a;" d="M905.75-2c0 0-675 0-675 0-31.050 0-56.25 25.2-56.25 56.25 0 0 0 675 0 675 0 31.106 25.2 56.25 56.25 56.25 0 0 675 0 675 0 31.050 0 56.25-25.144 56.25-56.25 0 0 0-675 0-675 0-31.050-25.2-56.25-56.25-56.25zM905.75 729.25c0 0-675 0-675 0s0-675 0-675c0 0 675 0 675 0s0 675 0 675zM596.375 194.875c0 0 140.625 140.625 140.625 140.625s112.5-168.75 112.5-168.75c0 0 0-56.25 0-56.25s-562.5 0-562.5 0c0 0 0 168.806 0 168.806s112.5 112.444 112.5 112.444c0 0 196.875-196.875 196.875-196.875zM596.375 448c-46.631 0-84.375 37.744-84.375 84.375 0 46.575 37.744 84.431 84.375 84.431 46.575 0 84.375-37.856 84.375-84.431 0-46.631-37.8-84.375-84.375-84.375zM118.25 841.75c0 0 0-675 0-675s0-56.25 0-56.25c-31.050 0-56.25 25.2-56.25 56.25 0 0 0 675 0 675 0 31.050 25.2 56.25 56.25 56.25 0 0 675 0 675 0 31.050 0 56.25-25.2 56.25-56.25 0 0-56.25 0-56.25 0s-675 0-675 0z" />
<glyph unicode="&#xe61b;" d="M799.188 397.24c0 0-287.378-388.047-287.378-388.047s-287.487 388.047-287.487 388.047c0 0-0.554 0-0.554 0-28.382 48.95-44.903 105.659-44.903 166.362 0 183.658 148.954 332.612 332.612 332.612s332.612-148.954 332.612-332.612c0-60.702-16.52-117.412-44.903-166.362zM511.479 840.722c-153.112 0-277.176-124.12-277.176-277.12 0-62.697 21.621-119.906 56.71-166.362 0 0 220.467-294.472 220.467-294.472s221.741 294.472 221.741 294.472c0 0-1.275 0-1.275 0 35.091 46.455 56.711 103.665 56.711 166.362 0 153.001-124.064 277.12-277.176 277.12zM511.479 397.24c-91.857 0-166.306 74.504-166.306 166.362 0 91.801 74.45 166.25 166.306 166.25s166.306-74.45 166.306-166.25c0-91.857-74.45-166.362-166.306-166.362zM511.479 674.418c-61.202 0-110.871-49.67-110.871-110.815 0-61.256 49.67-110.925 110.871-110.925s110.871 49.67 110.871 110.925c0 61.146-49.67 110.815-110.871 110.815z" horiz-adv-x="1022" />
<glyph unicode="&#xe61c;" d="M901.79 111.654c0 0-784.936 0-784.936 0-31.006 0-56.068 25.062-56.068 56.010 0 0 0 560.668 0 560.668 0 30.949 25.062 56.068 56.068 56.068 0 0 784.936 0 784.936 0 31.006 0 56.068-25.118 56.068-56.068 0 0 0-560.668 0-560.668 0-30.949-25.062-56.010-56.068-56.010zM901.79 728.332c0 0-784.936 0-784.936 0s0-560.668 0-560.668c0 0 784.936 0 784.936 0s0 560.668 0 560.668zM565.388 391.934c0 0-336.402 0-336.402 0s0 56.123 0 56.123c0 0 336.402 0 336.402 0s0-56.123 0-56.123zM565.388 279.855c0 0-336.402 0-336.402 0s0 56.010 0 56.010c0 0 336.402 0 336.402 0s0-56.010 0-56.010zM845.723 504.123c0 0-168.199 0-168.199 0s0 168.145 0 168.145c0 0 168.199 0 168.199 0s0-168.145 0-168.145z" horiz-adv-x="1026" />
<glyph unicode="&#xe61d;" d="M315.125 729.25c0 0 0-562.5 0-562.5 0-93.206 75.544-168.694 168.75-168.694 0 0 168.75 0 168.75 0 31.050 0 56.25 25.144 56.25 56.194 0 0 0 168.75 0 168.75 0 31.050-25.2 56.306-56.25 56.306 0 0-112.5 0-112.5 0s0 337.444 0 337.444c0 0 112.5 0 112.5 0 31.050 0 56.25 25.2 56.25 56.25 0 0 0 168.75 0 168.75 0 31.106-25.2 56.25-56.25 56.25 0 0-168.75 0-168.75 0-93.206 0-168.75-75.6-168.75-168.75zM652.625 841.75c0 0 0-168.75 0-168.75s-168.75 0-168.75 0c0 0 0-450 0-450s168.75 0 168.75 0c0 0 0-168.75 0-168.75s-168.75 0-168.75 0c-62.156 0-112.5 50.4-112.5 112.5 0 0 0 562.5 0 562.5 0 62.1 50.344 112.5 112.5 112.5 0 0 168.75 0 168.75 0z" />
<glyph unicode="&#xe61e;" d="M357.888 305.821l-91.976 111.444v302.164h528.327l-79.586-91.948h-356.766zM512.585 2.304c-241.518 0-438.042 196.511-438.042 438.029v456.408h566.628l-79.586-92.010h-395.039v-364.405c0-190.793 155.227-346.054 346.040-346.054 190.861 0 346.101 155.254 346.101 346.054v8.655h-319.027l-90.772 91.983h501.74v-100.644c0-241.504-196.491-438.016-438.042-438.016z" horiz-adv-x="1027" />
<glyph unicode="&#xe61f;" d="M564.674 450.994l377.342 373.626c13.935 13.832 13.987 36.181 0 50.013s-36.697 13.832-50.529 0.052l-382.969-368.569-382.865 368.516c-13.987 13.832-36.594 13.832-50.529 0-13.935-13.781-13.935-36.181 0-50.013l377.342-373.626-377.342-373.626c-13.935-13.832-13.935-36.181 0-50.013s36.542-13.832 50.529 0l382.865 368.569 382.916-368.569c13.884-13.832 36.542-13.832 50.529 0 13.987 13.884 13.935 36.181 0 50.013l-377.29 373.626z" horiz-adv-x="1021" />
<glyph unicode="&#xe620;" d="M905.75 166.806c0 0-112.5 0-112.5 0s0-112.556 0-112.556c0-31.050-25.2-56.25-56.25-56.25s-56.25 25.2-56.25 56.25c0 0 0 112.556 0 112.556s-112.5 0-112.5 0c-31.050 0-56.25 25.144-56.25 56.194 0 31.106 25.2 56.25 56.25 56.25 0 0 112.5 0 112.5 0s0 112.5 0 112.5c0 31.050 25.2 56.25 56.25 56.25s56.25-25.2 56.25-56.25c0 0 0-112.5 0-112.5s112.5 0 112.5 0c31.050 0 56.25-25.144 56.25-56.25 0-31.050-25.2-56.194-56.25-56.194zM793.25 841.806c0 0-450 0-450 0s0-168.806 0-168.806c0-31.050-25.2-56.25-56.25-56.25 0 0-168.75 0-168.75 0s0-562.5 0-562.5c0 0 506.25 0 506.25 0s0-56.25 0-56.25c0 0-506.25 0-506.25 0-31.050 0-56.25 25.2-56.25 56.25 0 0 0 618.75 0 618.75s225 225 225 225c0 0 506.25 0 506.25 0 31.050 0 56.25-25.2 56.25-56.194 0 0 0-337.5 0-337.5s-56.25 0-56.25 0c0 0 0 337.5 0 337.5zM287 813.625c0 0-140.625-140.625-140.625-140.625s140.625 0 140.625 0c0 0 0 140.625 0 140.625z" />
<glyph unicode="&#xe621;" d="M895.962 898c0 0-767.925 0-767.925 0-36.506 0-66.038-29.587-66.038-65.194 0 0 0-770.344 0-770.344 0-35.55 29.531-64.462 66.038-64.462 0 0 767.925 0 767.925 0 36.45 0 66.038 28.913 66.038 64.462 0 0 0 770.344 0 770.344 0 35.606-29.587 65.194-66.038 65.194zM343.25 144.25c0 0-140.625 0-140.625 0s0 405 0 405c0 0 140.625 0 140.625 0s0-405 0-405zM278.563 616.75c-41.962 0-75.938 34.031-75.938 75.938s33.975 75.938 75.938 75.938c41.962 0 75.938-34.031 75.938-75.938s-33.975-75.938-75.938-75.938zM849.5 144.25c0 0-140.625 0-140.625 0s0 220.331 0 220.331c0 0 0 83.419-70.313 83.419s-70.313-85.163-70.313-85.163c0 0 0-218.587 0-218.587s-140.625 0-140.625 0c0 0 1.744 368.494 0 405 0 0 140.625 0 140.625 0s0-56.194 0-56.194c17.944 27.619 40.837 67.050 112.5 67.050 88.763 0 168.75-58.050 168.75-182.756 0 0 0-233.1 0-233.1z" />
<glyph unicode="&#xe622;" d="M702.716 448c121.073 76.759 203.034 224.303 203.034 393.75 0 19.051-1.048 37.822-3.057 56.25h-781.385c-2.013-18.429-3.059-37.201-3.059-56.25 0-169.447 81.962-316.991 203.033-393.75-121.071-76.759-203.033-224.303-203.033-393.75 0-19.051 1.046-37.822 3.057-56.25h781.385c2.011 18.428 3.057 37.199 3.057 56.25 0.002 169.447-81.96 316.991-203.033 393.75zM202.625 54.25c0 164.278 70.455 303.587 196.875 349.548v88.405c-126.42 45.958-196.875 185.267-196.875 349.546v0h618.75c0-164.28-70.455-303.588-196.875-349.546v-88.405c126.42-45.962 196.875-185.27 196.875-349.548h-618.75zM606.593 309.49c-62.978 35.722-66.452 82.061-66.468 110.185v56.451c0 28.119 3.343 74.632 66.572 110.447 33.842 19.656 63.112 49.524 85.297 86.428h-359.984c22.207-36.942 51.515-66.833 85.4-86.49 62.978-35.723 66.451-82.060 66.468-110.185v-56.451c0-28.117-3.343-74.632-66.572-110.447-63.828-37.072-111.391-110.465-125.763-198.928h440.921c-14.382 88.513-61.989 161.937-125.87 198.99z" />
<glyph unicode="&#xe623;" d="M62 448c0-248.528 201.472-450 450-450 248.53 0 450 201.472 450 450s-201.47 450-450 450c-248.528 0-450-201.472-450-450zM849.5 448c0-64.368-18.028-124.523-49.296-175.704l-463.906 463.908c51.179 31.269 111.335 49.296 175.702 49.296 186.395 0 337.5-151.103 337.5-337.5zM174.5 448c0 64.368 18.028 124.522 49.298 175.704l463.906-463.908c-51.182-31.269-111.337-49.296-175.704-49.296-186.395 0-337.5 151.103-337.5 337.5z" />
<glyph unicode="&#xe624;" d="M512-2c-248.512 0-450 201.487-450 450s201.487 450 450 450c248.512 0 450-201.487 450-450s-201.487-450-450-450zM512 841.75c-217.463 0-393.75-176.287-393.75-393.75s176.287-393.75 393.75-393.75c217.463 0 393.75 176.287 393.75 393.75s-176.287 393.75-393.75 393.75zM512 166.694c-31.050 0-56.25 25.256-56.25 56.306s25.2 56.25 56.25 56.25c31.050 0 56.25-25.2 56.25-56.25s-25.2-56.306-56.25-56.306zM512 335.5c-31.050 0-56.25 25.144-56.25 56.25 0 0 0 281.25 0 281.25 0 31.050 25.2 56.25 56.25 56.25s56.25-25.2 56.25-56.25c0 0 0-281.25 0-281.25 0-31.106-25.2-56.25-56.25-56.25z" />
<glyph unicode="&#xe625;" d="M512 891.954c-245.231 0-443.954-198.827-443.954-443.954 0-245.231 198.775-443.954 443.954-443.954s443.954 198.775 443.954 443.954c0 245.179-198.775 443.954-443.954 443.954zM778.901 502.014v-108.082h-533.801v108.082h533.801z" />
<glyph unicode="&#xe626;" d="M512 900.716c-250.072 0-452.716-202.752-452.716-452.716 0-250.072 202.698-452.716 452.716-452.716s452.716 202.698 452.716 452.716c0 250.018-202.698 452.716-452.716 452.716zM567.080 392.92v-217.034h-110.161v217.034h-217.088v110.161h217.034v217.088h110.215v-217.034h217.034v-110.215h-217.034z" />
</font>
</defs>
</svg>
